<svg width="99" height="102" viewBox="0 0 99 102" fill="none" xmlns="http://www.w3.org/2000/svg">
<path d="M77.9 69.5H85V88H77.9V69.5ZM63.7 51H70.8V88H63.7V51ZM31.75 88C27.0441 87.9941 22.5326 86.0431 19.2051 82.575C15.8775 79.1068 14.0056 74.4047 14 69.5H21.1C21.1 71.6954 21.7246 73.8414 22.8948 75.6668C24.0651 77.4922 25.7284 78.9149 27.6744 79.7551C29.6205 80.5952 31.7618 80.815 33.8277 80.3867C35.8936 79.9584 37.7913 78.9013 39.2807 77.3489C40.7701 75.7965 41.7844 73.8187 42.1954 71.6655C42.6063 69.5123 42.3954 67.2805 41.5893 65.2522C40.7832 63.224 39.4182 61.4904 37.6668 60.2707C35.9154 59.051 33.8564 58.4 31.75 58.4V51C36.4576 51 40.9724 52.9491 44.3011 56.4185C47.6299 59.8879 49.5 64.5935 49.5 69.5C49.5 74.4065 47.6299 79.1121 44.3011 82.5815C40.9724 86.0509 36.4576 88 31.75 88Z" fill="#FA3737"/>
<path d="M91.9286 0H7.07143C5.19597 0 3.39732 0.7676 2.07117 2.13394C0.745023 3.50027 0 5.35342 0 7.28571V94.7143C0 96.6466 0.745023 98.4997 2.07117 99.8661C3.39732 101.232 5.19597 102 7.07143 102H91.9286C93.8032 101.997 95.6002 101.229 96.9257 99.8629C98.2513 98.4972 98.9972 96.6457 99 94.7143V7.28571C99 5.35342 98.255 3.50027 96.9288 2.13394C95.6027 0.7676 93.804 0 91.9286 0ZM91.9286 32.7857H42.4286V7.28571H91.9286V32.7857ZM35.3571 7.28571V32.7857H7.07143V7.28571H35.3571ZM7.07143 94.7143V40.0714H91.9286L91.9356 94.7143H7.07143Z" fill="#FA3737"/>
</svg>
