<svg width="132" height="115" viewBox="0 0 132 115" fill="none" xmlns="http://www.w3.org/2000/svg">
<g opacity="0.3">
<mask id="mask0_2_847" style="mask-type:alpha" maskUnits="userSpaceOnUse" x="0" y="0" width="11" height="11">
<path d="M5.22838 10.425C8.11594 10.425 10.4568 8.09121 10.4568 5.21245C10.4568 2.33368 8.11594 0 5.22838 0C2.34082 0 0 2.33368 0 5.21245C0 8.09121 2.34082 10.425 5.22838 10.425Z" fill="url(#paint0_linear_2_847)"/>
</mask>
<g mask="url(#mask0_2_847)">
<path d="M5.22838 10.425C8.11594 10.425 10.4568 8.09121 10.4568 5.21245C10.4568 2.33368 8.11594 0 5.22838 0C2.34082 0 0 2.33368 0 5.21245C0 8.09121 2.34082 10.425 5.22838 10.425Z" fill="url(#paint1_linear_2_847)"/>
</g>
<mask id="mask1_2_847" style="mask-type:alpha" maskUnits="userSpaceOnUse" x="30" y="0" width="11" height="11">
<path d="M35.5096 10.425C38.3972 10.425 40.738 8.09121 40.738 5.21245C40.738 2.33368 38.3972 0 35.5096 0C32.6221 0 30.2812 2.33368 30.2812 5.21245C30.2812 8.09121 32.6221 10.425 35.5096 10.425Z" fill="url(#paint2_linear_2_847)"/>
</mask>
<g mask="url(#mask1_2_847)">
<path d="M35.5096 10.425C38.3972 10.425 40.738 8.09121 40.738 5.21245C40.738 2.33368 38.3972 0 35.5096 0C32.6221 0 30.2812 2.33368 30.2812 5.21245C30.2812 8.09121 32.6221 10.425 35.5096 10.425Z" fill="url(#paint3_linear_2_847)"/>
</g>
<mask id="mask2_2_847" style="mask-type:alpha" maskUnits="userSpaceOnUse" x="60" y="0" width="12" height="11">
<path d="M65.7909 10.425C68.6784 10.425 71.0193 8.09121 71.0193 5.21245C71.0193 2.33368 68.6784 0 65.7909 0C62.9033 0 60.5625 2.33368 60.5625 5.21245C60.5625 8.09121 62.9033 10.425 65.7909 10.425Z" fill="url(#paint4_linear_2_847)"/>
</mask>
<g mask="url(#mask2_2_847)">
<path d="M65.7909 10.425C68.6784 10.425 71.0193 8.09121 71.0193 5.21245C71.0193 2.33368 68.6784 0 65.7909 0C62.9033 0 60.5625 2.33368 60.5625 5.21245C60.5625 8.09121 62.9033 10.425 65.7909 10.425Z" fill="url(#paint5_linear_2_847)"/>
</g>
<mask id="mask3_2_847" style="mask-type:alpha" maskUnits="userSpaceOnUse" x="90" y="0" width="12" height="11">
<path d="M96.0712 10.425C98.9587 10.425 101.3 8.09121 101.3 5.21245C101.3 2.33368 98.9587 0 96.0712 0C93.1836 0 90.8428 2.33368 90.8428 5.21245C90.8428 8.09121 93.1836 10.425 96.0712 10.425Z" fill="url(#paint6_linear_2_847)"/>
</mask>
<g mask="url(#mask3_2_847)">
<path d="M96.0712 10.425C98.9587 10.425 101.3 8.09121 101.3 5.21245C101.3 2.33368 98.9587 0 96.0712 0C93.1836 0 90.8428 2.33368 90.8428 5.21245C90.8428 8.09121 93.1836 10.425 96.0712 10.425Z" fill="url(#paint7_linear_2_847)"/>
</g>
<mask id="mask4_2_847" style="mask-type:alpha" maskUnits="userSpaceOnUse" x="121" y="0" width="11" height="11">
<path d="M126.352 10.425C129.24 10.425 131.581 8.09121 131.581 5.21245C131.581 2.33368 129.24 0 126.352 0C123.465 0 121.124 2.33368 121.124 5.21245C121.124 8.09121 123.465 10.425 126.352 10.425Z" fill="url(#paint8_linear_2_847)"/>
</mask>
<g mask="url(#mask4_2_847)">
<path d="M126.352 10.425C129.24 10.425 131.581 8.09121 131.581 5.21245C131.581 2.33368 129.24 0 126.352 0C123.465 0 121.124 2.33368 121.124 5.21245C121.124 8.09121 123.465 10.425 126.352 10.425Z" fill="url(#paint9_linear_2_847)"/>
</g>
<mask id="mask5_2_847" style="mask-type:alpha" maskUnits="userSpaceOnUse" x="0" y="26" width="11" height="11">
<path d="M5.22838 36.5958C8.11594 36.5958 10.4568 34.2621 10.4568 31.3833C10.4568 28.5046 8.11594 26.1709 5.22838 26.1709C2.34082 26.1709 0 28.5046 0 31.3833C0 34.2621 2.34082 36.5958 5.22838 36.5958Z" fill="url(#paint10_linear_2_847)"/>
</mask>
<g mask="url(#mask5_2_847)">
<path d="M5.22838 36.5958C8.11594 36.5958 10.4568 34.2621 10.4568 31.3833C10.4568 28.5046 8.11594 26.1709 5.22838 26.1709C2.34082 26.1709 0 28.5046 0 31.3833C0 34.2621 2.34082 36.5958 5.22838 36.5958Z" fill="url(#paint11_linear_2_847)"/>
</g>
<mask id="mask6_2_847" style="mask-type:alpha" maskUnits="userSpaceOnUse" x="30" y="26" width="11" height="11">
<path d="M35.5096 36.5958C38.3972 36.5958 40.738 34.2621 40.738 31.3833C40.738 28.5046 38.3972 26.1709 35.5096 26.1709C32.6221 26.1709 30.2812 28.5046 30.2812 31.3833C30.2812 34.2621 32.6221 36.5958 35.5096 36.5958Z" fill="url(#paint12_linear_2_847)"/>
</mask>
<g mask="url(#mask6_2_847)">
<path d="M35.5096 36.5958C38.3972 36.5958 40.738 34.2621 40.738 31.3833C40.738 28.5046 38.3972 26.1709 35.5096 26.1709C32.6221 26.1709 30.2812 28.5046 30.2812 31.3833C30.2812 34.2621 32.6221 36.5958 35.5096 36.5958Z" fill="url(#paint13_linear_2_847)"/>
</g>
<mask id="mask7_2_847" style="mask-type:alpha" maskUnits="userSpaceOnUse" x="60" y="26" width="12" height="11">
<path d="M65.7909 36.5958C68.6784 36.5958 71.0193 34.2621 71.0193 31.3833C71.0193 28.5046 68.6784 26.1709 65.7909 26.1709C62.9033 26.1709 60.5625 28.5046 60.5625 31.3833C60.5625 34.2621 62.9033 36.5958 65.7909 36.5958Z" fill="url(#paint14_linear_2_847)"/>
</mask>
<g mask="url(#mask7_2_847)">
<path d="M65.7909 36.5958C68.6784 36.5958 71.0193 34.2621 71.0193 31.3833C71.0193 28.5046 68.6784 26.1709 65.7909 26.1709C62.9033 26.1709 60.5625 28.5046 60.5625 31.3833C60.5625 34.2621 62.9033 36.5958 65.7909 36.5958Z" fill="url(#paint15_linear_2_847)"/>
</g>
<mask id="mask8_2_847" style="mask-type:alpha" maskUnits="userSpaceOnUse" x="90" y="26" width="12" height="11">
<path d="M96.0712 36.5958C98.9587 36.5958 101.3 34.2621 101.3 31.3833C101.3 28.5046 98.9587 26.1709 96.0712 26.1709C93.1836 26.1709 90.8428 28.5046 90.8428 31.3833C90.8428 34.2621 93.1836 36.5958 96.0712 36.5958Z" fill="url(#paint16_linear_2_847)"/>
</mask>
<g mask="url(#mask8_2_847)">
<path d="M96.0712 36.5958C98.9587 36.5958 101.3 34.2621 101.3 31.3833C101.3 28.5046 98.9587 26.1709 96.0712 26.1709C93.1836 26.1709 90.8428 28.5046 90.8428 31.3833C90.8428 34.2621 93.1836 36.5958 96.0712 36.5958Z" fill="url(#paint17_linear_2_847)"/>
</g>
<mask id="mask9_2_847" style="mask-type:alpha" maskUnits="userSpaceOnUse" x="121" y="26" width="11" height="11">
<path d="M126.352 36.5958C129.24 36.5958 131.581 34.2621 131.581 31.3833C131.581 28.5046 129.24 26.1709 126.352 26.1709C123.465 26.1709 121.124 28.5046 121.124 31.3833C121.124 34.2621 123.465 36.5958 126.352 36.5958Z" fill="url(#paint18_linear_2_847)"/>
</mask>
<g mask="url(#mask9_2_847)">
<path d="M126.352 36.5958C129.24 36.5958 131.581 34.2621 131.581 31.3833C131.581 28.5046 129.24 26.1709 126.352 26.1709C123.465 26.1709 121.124 28.5046 121.124 31.3833C121.124 34.2621 123.465 36.5958 126.352 36.5958Z" fill="url(#paint19_linear_2_847)"/>
</g>
<mask id="mask10_2_847" style="mask-type:alpha" maskUnits="userSpaceOnUse" x="0" y="52" width="11" height="11">
<path d="M5.22838 62.7123C8.11594 62.7123 10.4568 60.3786 10.4568 57.4998C10.4568 54.6211 8.11594 52.2874 5.22838 52.2874C2.34082 52.2874 0 54.6211 0 57.4998C0 60.3786 2.34082 62.7123 5.22838 62.7123Z" fill="url(#paint20_linear_2_847)"/>
</mask>
<g mask="url(#mask10_2_847)">
<path d="M5.22838 62.7123C8.11594 62.7123 10.4568 60.3786 10.4568 57.4998C10.4568 54.6211 8.11594 52.2874 5.22838 52.2874C2.34082 52.2874 0 54.6211 0 57.4998C0 60.3786 2.34082 62.7123 5.22838 62.7123Z" fill="url(#paint21_linear_2_847)"/>
</g>
<mask id="mask11_2_847" style="mask-type:alpha" maskUnits="userSpaceOnUse" x="30" y="52" width="11" height="11">
<path d="M35.5096 62.7123C38.3972 62.7123 40.738 60.3786 40.738 57.4998C40.738 54.6211 38.3972 52.2874 35.5096 52.2874C32.6221 52.2874 30.2812 54.6211 30.2812 57.4998C30.2812 60.3786 32.6221 62.7123 35.5096 62.7123Z" fill="url(#paint22_linear_2_847)"/>
</mask>
<g mask="url(#mask11_2_847)">
<path d="M35.5096 62.7123C38.3972 62.7123 40.738 60.3786 40.738 57.4998C40.738 54.6211 38.3972 52.2874 35.5096 52.2874C32.6221 52.2874 30.2812 54.6211 30.2812 57.4998C30.2812 60.3786 32.6221 62.7123 35.5096 62.7123Z" fill="url(#paint23_linear_2_847)"/>
</g>
<mask id="mask12_2_847" style="mask-type:alpha" maskUnits="userSpaceOnUse" x="60" y="52" width="12" height="11">
<path d="M65.7909 62.7123C68.6784 62.7123 71.0193 60.3786 71.0193 57.4998C71.0193 54.6211 68.6784 52.2874 65.7909 52.2874C62.9033 52.2874 60.5625 54.6211 60.5625 57.4998C60.5625 60.3786 62.9033 62.7123 65.7909 62.7123Z" fill="url(#paint24_linear_2_847)"/>
</mask>
<g mask="url(#mask12_2_847)">
<path d="M65.7909 62.7123C68.6784 62.7123 71.0193 60.3786 71.0193 57.4998C71.0193 54.6211 68.6784 52.2874 65.7909 52.2874C62.9033 52.2874 60.5625 54.6211 60.5625 57.4998C60.5625 60.3786 62.9033 62.7123 65.7909 62.7123Z" fill="url(#paint25_linear_2_847)"/>
</g>
<mask id="mask13_2_847" style="mask-type:alpha" maskUnits="userSpaceOnUse" x="90" y="52" width="12" height="11">
<path d="M96.0712 62.7123C98.9587 62.7123 101.3 60.3786 101.3 57.4998C101.3 54.6211 98.9587 52.2874 96.0712 52.2874C93.1836 52.2874 90.8428 54.6211 90.8428 57.4998C90.8428 60.3786 93.1836 62.7123 96.0712 62.7123Z" fill="url(#paint26_linear_2_847)"/>
</mask>
<g mask="url(#mask13_2_847)">
<path d="M96.0712 62.7123C98.9587 62.7123 101.3 60.3786 101.3 57.4998C101.3 54.6211 98.9587 52.2874 96.0712 52.2874C93.1836 52.2874 90.8428 54.6211 90.8428 57.4998C90.8428 60.3786 93.1836 62.7123 96.0712 62.7123Z" fill="url(#paint27_linear_2_847)"/>
</g>
<mask id="mask14_2_847" style="mask-type:alpha" maskUnits="userSpaceOnUse" x="121" y="52" width="11" height="11">
<path d="M126.352 62.7123C129.24 62.7123 131.581 60.3786 131.581 57.4998C131.581 54.6211 129.24 52.2874 126.352 52.2874C123.465 52.2874 121.124 54.6211 121.124 57.4998C121.124 60.3786 123.465 62.7123 126.352 62.7123Z" fill="url(#paint28_linear_2_847)"/>
</mask>
<g mask="url(#mask14_2_847)">
<path d="M126.352 62.7123C129.24 62.7123 131.581 60.3786 131.581 57.4998C131.581 54.6211 129.24 52.2874 126.352 52.2874C123.465 52.2874 121.124 54.6211 121.124 57.4998C121.124 60.3786 123.465 62.7123 126.352 62.7123Z" fill="url(#paint29_linear_2_847)"/>
</g>
<mask id="mask15_2_847" style="mask-type:alpha" maskUnits="userSpaceOnUse" x="0" y="78" width="11" height="11">
<path d="M5.22838 88.8835C8.11594 88.8835 10.4568 86.5497 10.4568 83.6709C10.4568 80.7922 8.11594 78.4585 5.22838 78.4585C2.34082 78.4585 0 80.7922 0 83.6709C0 86.5497 2.34082 88.8835 5.22838 88.8835Z" fill="url(#paint30_linear_2_847)"/>
</mask>
<g mask="url(#mask15_2_847)">
<path d="M5.22838 88.8835C8.11594 88.8835 10.4568 86.5497 10.4568 83.6709C10.4568 80.7922 8.11594 78.4585 5.22838 78.4585C2.34082 78.4585 0 80.7922 0 83.6709C0 86.5497 2.34082 88.8835 5.22838 88.8835Z" fill="url(#paint31_linear_2_847)"/>
</g>
<mask id="mask16_2_847" style="mask-type:alpha" maskUnits="userSpaceOnUse" x="30" y="78" width="11" height="11">
<path d="M35.5096 88.8835C38.3972 88.8835 40.738 86.5497 40.738 83.6709C40.738 80.7922 38.3972 78.4585 35.5096 78.4585C32.6221 78.4585 30.2812 80.7922 30.2812 83.6709C30.2812 86.5497 32.6221 88.8835 35.5096 88.8835Z" fill="url(#paint32_linear_2_847)"/>
</mask>
<g mask="url(#mask16_2_847)">
<path d="M35.5096 88.8835C38.3972 88.8835 40.738 86.5497 40.738 83.6709C40.738 80.7922 38.3972 78.4585 35.5096 78.4585C32.6221 78.4585 30.2812 80.7922 30.2812 83.6709C30.2812 86.5497 32.6221 88.8835 35.5096 88.8835Z" fill="url(#paint33_linear_2_847)"/>
</g>
<mask id="mask17_2_847" style="mask-type:alpha" maskUnits="userSpaceOnUse" x="60" y="78" width="12" height="11">
<path d="M65.7909 88.8835C68.6784 88.8835 71.0193 86.5497 71.0193 83.6709C71.0193 80.7922 68.6784 78.4585 65.7909 78.4585C62.9033 78.4585 60.5625 80.7922 60.5625 83.6709C60.5625 86.5497 62.9033 88.8835 65.7909 88.8835Z" fill="url(#paint34_linear_2_847)"/>
</mask>
<g mask="url(#mask17_2_847)">
<path d="M65.7909 88.8835C68.6784 88.8835 71.0193 86.5497 71.0193 83.6709C71.0193 80.7922 68.6784 78.4585 65.7909 78.4585C62.9033 78.4585 60.5625 80.7922 60.5625 83.6709C60.5625 86.5497 62.9033 88.8835 65.7909 88.8835Z" fill="url(#paint35_linear_2_847)"/>
</g>
<mask id="mask18_2_847" style="mask-type:alpha" maskUnits="userSpaceOnUse" x="90" y="78" width="12" height="11">
<path d="M96.0712 88.8835C98.9587 88.8835 101.3 86.5497 101.3 83.6709C101.3 80.7922 98.9587 78.4585 96.0712 78.4585C93.1836 78.4585 90.8428 80.7922 90.8428 83.6709C90.8428 86.5497 93.1836 88.8835 96.0712 88.8835Z" fill="url(#paint36_linear_2_847)"/>
</mask>
<g mask="url(#mask18_2_847)">
<path d="M96.0712 88.8835C98.9587 88.8835 101.3 86.5497 101.3 83.6709C101.3 80.7922 98.9587 78.4585 96.0712 78.4585C93.1836 78.4585 90.8428 80.7922 90.8428 83.6709C90.8428 86.5497 93.1836 88.8835 96.0712 88.8835Z" fill="url(#paint37_linear_2_847)"/>
</g>
<mask id="mask19_2_847" style="mask-type:alpha" maskUnits="userSpaceOnUse" x="121" y="78" width="11" height="11">
<path d="M126.352 88.8835C129.24 88.8835 131.581 86.5497 131.581 83.6709C131.581 80.7922 129.24 78.4585 126.352 78.4585C123.465 78.4585 121.124 80.7922 121.124 83.6709C121.124 86.5497 123.465 88.8835 126.352 88.8835Z" fill="url(#paint38_linear_2_847)"/>
</mask>
<g mask="url(#mask19_2_847)">
<path d="M126.352 88.8835C129.24 88.8835 131.581 86.5497 131.581 83.6709C131.581 80.7922 129.24 78.4585 126.352 78.4585C123.465 78.4585 121.124 80.7922 121.124 83.6709C121.124 86.5497 123.465 88.8835 126.352 88.8835Z" fill="url(#paint39_linear_2_847)"/>
</g>
<mask id="mask20_2_847" style="mask-type:alpha" maskUnits="userSpaceOnUse" x="0" y="104" width="11" height="11">
<path d="M5.22838 115C8.11594 115 10.4568 112.666 10.4568 109.787C10.4568 106.909 8.11594 104.575 5.22838 104.575C2.34082 104.575 0 106.909 0 109.787C0 112.666 2.34082 115 5.22838 115Z" fill="url(#paint40_linear_2_847)"/>
</mask>
<g mask="url(#mask20_2_847)">
<path d="M5.22838 115C8.11594 115 10.4568 112.666 10.4568 109.787C10.4568 106.909 8.11594 104.575 5.22838 104.575C2.34082 104.575 0 106.909 0 109.787C0 112.666 2.34082 115 5.22838 115Z" fill="url(#paint41_linear_2_847)"/>
</g>
<mask id="mask21_2_847" style="mask-type:alpha" maskUnits="userSpaceOnUse" x="30" y="104" width="11" height="11">
<path d="M35.5096 115C38.3972 115 40.738 112.666 40.738 109.787C40.738 106.909 38.3972 104.575 35.5096 104.575C32.6221 104.575 30.2812 106.909 30.2812 109.787C30.2812 112.666 32.6221 115 35.5096 115Z" fill="url(#paint42_linear_2_847)"/>
</mask>
<g mask="url(#mask21_2_847)">
<path d="M35.5096 115C38.3972 115 40.738 112.666 40.738 109.787C40.738 106.909 38.3972 104.575 35.5096 104.575C32.6221 104.575 30.2812 106.909 30.2812 109.787C30.2812 112.666 32.6221 115 35.5096 115Z" fill="url(#paint43_linear_2_847)"/>
</g>
<mask id="mask22_2_847" style="mask-type:alpha" maskUnits="userSpaceOnUse" x="60" y="104" width="12" height="11">
<path d="M65.7909 115C68.6784 115 71.0193 112.666 71.0193 109.787C71.0193 106.909 68.6784 104.575 65.7909 104.575C62.9033 104.575 60.5625 106.909 60.5625 109.787C60.5625 112.666 62.9033 115 65.7909 115Z" fill="url(#paint44_linear_2_847)"/>
</mask>
<g mask="url(#mask22_2_847)">
<path d="M65.7909 115C68.6784 115 71.0193 112.666 71.0193 109.787C71.0193 106.909 68.6784 104.575 65.7909 104.575C62.9033 104.575 60.5625 106.909 60.5625 109.787C60.5625 112.666 62.9033 115 65.7909 115Z" fill="url(#paint45_linear_2_847)"/>
</g>
<mask id="mask23_2_847" style="mask-type:alpha" maskUnits="userSpaceOnUse" x="90" y="104" width="12" height="11">
<path d="M96.0712 115C98.9587 115 101.3 112.666 101.3 109.787C101.3 106.909 98.9587 104.575 96.0712 104.575C93.1836 104.575 90.8428 106.909 90.8428 109.787C90.8428 112.666 93.1836 115 96.0712 115Z" fill="url(#paint46_linear_2_847)"/>
</mask>
<g mask="url(#mask23_2_847)">
<path d="M96.0712 115C98.9587 115 101.3 112.666 101.3 109.787C101.3 106.909 98.9587 104.575 96.0712 104.575C93.1836 104.575 90.8428 106.909 90.8428 109.787C90.8428 112.666 93.1836 115 96.0712 115Z" fill="url(#paint47_linear_2_847)"/>
</g>
<mask id="mask24_2_847" style="mask-type:alpha" maskUnits="userSpaceOnUse" x="121" y="104" width="11" height="11">
<path d="M126.352 115C129.24 115 131.581 112.666 131.581 109.787C131.581 106.909 129.24 104.575 126.352 104.575C123.465 104.575 121.124 106.909 121.124 109.787C121.124 112.666 123.465 115 126.352 115Z" fill="url(#paint48_linear_2_847)"/>
</mask>
<g mask="url(#mask24_2_847)">
<path d="M126.352 115C129.24 115 131.581 112.666 131.581 109.787C131.581 106.909 129.24 104.575 126.352 104.575C123.465 104.575 121.124 106.909 121.124 109.787C121.124 112.666 123.465 115 126.352 115Z" fill="url(#paint49_linear_2_847)"/>
</g>
</g>
<defs>
<linearGradient id="paint0_linear_2_847" x1="54.996" y1="131.134" x2="-16.4057" y2="-50.67" gradientUnits="userSpaceOnUse">
<stop/>
<stop offset="1" stop-color="white"/>
</linearGradient>
<linearGradient id="paint1_linear_2_847" x1="54.996" y1="131.134" x2="-16.4057" y2="-50.67" gradientUnits="userSpaceOnUse">
<stop stop-color="#97C3F9"/>
<stop offset="1" stop-color="#93C1F9"/>
</linearGradient>
<linearGradient id="paint2_linear_2_847" x1="81.2007" y1="120.843" x2="9.79907" y2="-60.9613" gradientUnits="userSpaceOnUse">
<stop/>
<stop offset="1" stop-color="white"/>
</linearGradient>
<linearGradient id="paint3_linear_2_847" x1="81.2007" y1="120.843" x2="9.79907" y2="-60.9613" gradientUnits="userSpaceOnUse">
<stop stop-color="#97C3F9"/>
<stop offset="1" stop-color="#93C1F9"/>
</linearGradient>
<linearGradient id="paint4_linear_2_847" x1="107.405" y1="110.551" x2="36.0037" y2="-71.2526" gradientUnits="userSpaceOnUse">
<stop/>
<stop offset="1" stop-color="white"/>
</linearGradient>
<linearGradient id="paint5_linear_2_847" x1="107.405" y1="110.551" x2="36.0037" y2="-71.2526" gradientUnits="userSpaceOnUse">
<stop stop-color="#97C3F9"/>
<stop offset="1" stop-color="#93C1F9"/>
</linearGradient>
<linearGradient id="paint6_linear_2_847" x1="133.609" y1="100.259" x2="62.2071" y2="-81.5444" gradientUnits="userSpaceOnUse">
<stop/>
<stop offset="1" stop-color="white"/>
</linearGradient>
<linearGradient id="paint7_linear_2_847" x1="133.609" y1="100.259" x2="62.2071" y2="-81.5444" gradientUnits="userSpaceOnUse">
<stop stop-color="#97C3F9"/>
<stop offset="1" stop-color="#93C1F9"/>
</linearGradient>
<linearGradient id="paint8_linear_2_847" x1="159.813" y1="89.9679" x2="88.4116" y2="-91.8359" gradientUnits="userSpaceOnUse">
<stop/>
<stop offset="1" stop-color="white"/>
</linearGradient>
<linearGradient id="paint9_linear_2_847" x1="159.813" y1="89.9679" x2="88.4116" y2="-91.8359" gradientUnits="userSpaceOnUse">
<stop stop-color="#97C3F9"/>
<stop offset="1" stop-color="#93C1F9"/>
</linearGradient>
<linearGradient id="paint10_linear_2_847" x1="46.0538" y1="134.645" x2="-25.3466" y2="-47.1572" gradientUnits="userSpaceOnUse">
<stop/>
<stop offset="1" stop-color="white"/>
</linearGradient>
<linearGradient id="paint11_linear_2_847" x1="46.0538" y1="134.645" x2="-25.3466" y2="-47.1572" gradientUnits="userSpaceOnUse">
<stop stop-color="#97C3F9"/>
<stop offset="1" stop-color="#93C1F9"/>
</linearGradient>
<linearGradient id="paint12_linear_2_847" x1="72.2583" y1="124.354" x2="0.857901" y2="-57.4491" gradientUnits="userSpaceOnUse">
<stop/>
<stop offset="1" stop-color="white"/>
</linearGradient>
<linearGradient id="paint13_linear_2_847" x1="72.2583" y1="124.354" x2="0.857901" y2="-57.4491" gradientUnits="userSpaceOnUse">
<stop stop-color="#97C3F9"/>
<stop offset="1" stop-color="#93C1F9"/>
</linearGradient>
<linearGradient id="paint14_linear_2_847" x1="98.4628" y1="114.062" x2="27.0624" y2="-67.7404" gradientUnits="userSpaceOnUse">
<stop/>
<stop offset="1" stop-color="white"/>
</linearGradient>
<linearGradient id="paint15_linear_2_847" x1="98.4628" y1="114.062" x2="27.0624" y2="-67.7404" gradientUnits="userSpaceOnUse">
<stop stop-color="#97C3F9"/>
<stop offset="1" stop-color="#93C1F9"/>
</linearGradient>
<linearGradient id="paint16_linear_2_847" x1="124.666" y1="103.771" x2="53.2659" y2="-78.0318" gradientUnits="userSpaceOnUse">
<stop/>
<stop offset="1" stop-color="white"/>
</linearGradient>
<linearGradient id="paint17_linear_2_847" x1="124.666" y1="103.771" x2="53.2659" y2="-78.0318" gradientUnits="userSpaceOnUse">
<stop stop-color="#97C3F9"/>
<stop offset="1" stop-color="#93C1F9"/>
</linearGradient>
<linearGradient id="paint18_linear_2_847" x1="150.871" y1="93.4793" x2="79.4705" y2="-88.3232" gradientUnits="userSpaceOnUse">
<stop/>
<stop offset="1" stop-color="white"/>
</linearGradient>
<linearGradient id="paint19_linear_2_847" x1="150.871" y1="93.4793" x2="79.4705" y2="-88.3232" gradientUnits="userSpaceOnUse">
<stop stop-color="#97C3F9"/>
<stop offset="1" stop-color="#93C1F9"/>
</linearGradient>
<linearGradient id="paint20_linear_2_847" x1="37.1113" y1="138.158" x2="-34.2903" y2="-43.646" gradientUnits="userSpaceOnUse">
<stop/>
<stop offset="1" stop-color="white"/>
</linearGradient>
<linearGradient id="paint21_linear_2_847" x1="37.1113" y1="138.158" x2="-34.2903" y2="-43.646" gradientUnits="userSpaceOnUse">
<stop stop-color="#97C3F9"/>
<stop offset="1" stop-color="#93C1F9"/>
</linearGradient>
<linearGradient id="paint22_linear_2_847" x1="63.3159" y1="127.866" x2="-8.08572" y2="-53.9376" gradientUnits="userSpaceOnUse">
<stop/>
<stop offset="1" stop-color="white"/>
</linearGradient>
<linearGradient id="paint23_linear_2_847" x1="63.3159" y1="127.866" x2="-8.08572" y2="-53.9376" gradientUnits="userSpaceOnUse">
<stop stop-color="#97C3F9"/>
<stop offset="1" stop-color="#93C1F9"/>
</linearGradient>
<linearGradient id="paint24_linear_2_847" x1="89.5204" y1="117.575" x2="18.1189" y2="-64.229" gradientUnits="userSpaceOnUse">
<stop/>
<stop offset="1" stop-color="white"/>
</linearGradient>
<linearGradient id="paint25_linear_2_847" x1="89.5204" y1="117.575" x2="18.1189" y2="-64.229" gradientUnits="userSpaceOnUse">
<stop stop-color="#97C3F9"/>
<stop offset="1" stop-color="#93C1F9"/>
</linearGradient>
<linearGradient id="paint26_linear_2_847" x1="115.724" y1="107.283" x2="44.3223" y2="-74.5206" gradientUnits="userSpaceOnUse">
<stop/>
<stop offset="1" stop-color="white"/>
</linearGradient>
<linearGradient id="paint27_linear_2_847" x1="115.724" y1="107.283" x2="44.3223" y2="-74.5206" gradientUnits="userSpaceOnUse">
<stop stop-color="#97C3F9"/>
<stop offset="1" stop-color="#93C1F9"/>
</linearGradient>
<linearGradient id="paint28_linear_2_847" x1="141.928" y1="96.9917" x2="70.5268" y2="-84.8121" gradientUnits="userSpaceOnUse">
<stop/>
<stop offset="1" stop-color="white"/>
</linearGradient>
<linearGradient id="paint29_linear_2_847" x1="141.928" y1="96.9917" x2="70.5268" y2="-84.8121" gradientUnits="userSpaceOnUse">
<stop stop-color="#97C3F9"/>
<stop offset="1" stop-color="#93C1F9"/>
</linearGradient>
<linearGradient id="paint30_linear_2_847" x1="28.169" y1="141.67" x2="-43.2327" y2="-40.1338" gradientUnits="userSpaceOnUse">
<stop/>
<stop offset="1" stop-color="white"/>
</linearGradient>
<linearGradient id="paint31_linear_2_847" x1="28.169" y1="141.67" x2="-43.2327" y2="-40.1338" gradientUnits="userSpaceOnUse">
<stop stop-color="#97C3F9"/>
<stop offset="1" stop-color="#93C1F9"/>
</linearGradient>
<linearGradient id="paint32_linear_2_847" x1="54.3736" y1="131.379" x2="-17.0281" y2="-50.4253" gradientUnits="userSpaceOnUse">
<stop/>
<stop offset="1" stop-color="white"/>
</linearGradient>
<linearGradient id="paint33_linear_2_847" x1="54.3736" y1="131.379" x2="-17.0281" y2="-50.4253" gradientUnits="userSpaceOnUse">
<stop stop-color="#97C3F9"/>
<stop offset="1" stop-color="#93C1F9"/>
</linearGradient>
<linearGradient id="paint34_linear_2_847" x1="80.578" y1="121.087" x2="9.17646" y2="-60.7167" gradientUnits="userSpaceOnUse">
<stop/>
<stop offset="1" stop-color="white"/>
</linearGradient>
<linearGradient id="paint35_linear_2_847" x1="80.578" y1="121.087" x2="9.17646" y2="-60.7167" gradientUnits="userSpaceOnUse">
<stop stop-color="#97C3F9"/>
<stop offset="1" stop-color="#93C1F9"/>
</linearGradient>
<linearGradient id="paint36_linear_2_847" x1="106.782" y1="110.796" x2="35.3799" y2="-71.0083" gradientUnits="userSpaceOnUse">
<stop/>
<stop offset="1" stop-color="white"/>
</linearGradient>
<linearGradient id="paint37_linear_2_847" x1="106.782" y1="110.796" x2="35.3799" y2="-71.0083" gradientUnits="userSpaceOnUse">
<stop stop-color="#97C3F9"/>
<stop offset="1" stop-color="#93C1F9"/>
</linearGradient>
<linearGradient id="paint38_linear_2_847" x1="132.986" y1="100.504" x2="61.5845" y2="-81.2999" gradientUnits="userSpaceOnUse">
<stop/>
<stop offset="1" stop-color="white"/>
</linearGradient>
<linearGradient id="paint39_linear_2_847" x1="132.986" y1="100.504" x2="61.5845" y2="-81.2999" gradientUnits="userSpaceOnUse">
<stop stop-color="#97C3F9"/>
<stop offset="1" stop-color="#93C1F9"/>
</linearGradient>
<linearGradient id="paint40_linear_2_847" x1="19.2266" y1="145.182" x2="-52.1751" y2="-36.622" gradientUnits="userSpaceOnUse">
<stop/>
<stop offset="1" stop-color="white"/>
</linearGradient>
<linearGradient id="paint41_linear_2_847" x1="19.2266" y1="145.182" x2="-52.1751" y2="-36.622" gradientUnits="userSpaceOnUse">
<stop stop-color="#97C3F9"/>
<stop offset="1" stop-color="#93C1F9"/>
</linearGradient>
<linearGradient id="paint42_linear_2_847" x1="45.4312" y1="134.89" x2="-25.9705" y2="-46.9135" gradientUnits="userSpaceOnUse">
<stop/>
<stop offset="1" stop-color="white"/>
</linearGradient>
<linearGradient id="paint43_linear_2_847" x1="45.4312" y1="134.89" x2="-25.9705" y2="-46.9135" gradientUnits="userSpaceOnUse">
<stop stop-color="#97C3F9"/>
<stop offset="1" stop-color="#93C1F9"/>
</linearGradient>
<linearGradient id="paint44_linear_2_847" x1="71.6357" y1="124.599" x2="0.234115" y2="-57.2048" gradientUnits="userSpaceOnUse">
<stop/>
<stop offset="1" stop-color="white"/>
</linearGradient>
<linearGradient id="paint45_linear_2_847" x1="71.6357" y1="124.599" x2="0.234115" y2="-57.2048" gradientUnits="userSpaceOnUse">
<stop stop-color="#97C3F9"/>
<stop offset="1" stop-color="#93C1F9"/>
</linearGradient>
<linearGradient id="paint46_linear_2_847" x1="97.8392" y1="114.307" x2="26.4376" y2="-67.4964" gradientUnits="userSpaceOnUse">
<stop/>
<stop offset="1" stop-color="white"/>
</linearGradient>
<linearGradient id="paint47_linear_2_847" x1="97.8392" y1="114.307" x2="26.4376" y2="-67.4964" gradientUnits="userSpaceOnUse">
<stop stop-color="#97C3F9"/>
<stop offset="1" stop-color="#93C1F9"/>
</linearGradient>
<linearGradient id="paint48_linear_2_847" x1="124.044" y1="104.016" x2="52.6421" y2="-77.7879" gradientUnits="userSpaceOnUse">
<stop/>
<stop offset="1" stop-color="white"/>
</linearGradient>
<linearGradient id="paint49_linear_2_847" x1="124.044" y1="104.016" x2="52.6421" y2="-77.7879" gradientUnits="userSpaceOnUse">
<stop stop-color="#97C3F9"/>
<stop offset="1" stop-color="#93C1F9"/>
</linearGradient>
</defs>
</svg>
