<svg width="120" height="113" viewBox="0 0 120 113" fill="none" xmlns="http://www.w3.org/2000/svg">
<path d="M35.9953 22.7433V57.9068C35.9953 59.9231 38.187 61.157 39.8908 60.1005L65.9595 44.0431C66.5917 43.6542 67.1141 43.108 67.4766 42.457C67.8391 41.8059 68.0295 41.0717 68.0295 40.3251C68.0295 39.5784 67.8391 38.8443 67.4766 38.1932C67.1141 37.5421 66.5917 36.9959 65.9595 36.6071L39.8828 20.5497C39.495 20.3124 39.0516 20.1833 38.598 20.1756C38.1444 20.1679 37.6969 20.2819 37.3014 20.506C36.9059 20.73 36.5765 21.0559 36.347 21.4505C36.1175 21.845 35.9962 22.2859 35.9953 22.7433ZM19.9974 0C14.6938 0 9.60735 2.12426 5.85711 5.90547C2.10686 9.68668 0 14.8151 0 20.1625V60.4876C0 63.1354 0.517248 65.7573 1.52221 68.2035C2.52718 70.6497 4.00017 72.8724 5.85711 74.7447C9.60735 78.5259 14.6938 80.6502 19.9974 80.6502H63.0158L63.7757 79.884C62.1365 79.2631 60.6519 78.288 59.4262 77.0271C58.2005 75.7662 57.2634 74.2501 56.6807 72.5852H19.9974C16.8152 72.5852 13.7634 71.3106 11.5132 69.0419C9.26308 66.7731 7.99896 63.6961 7.99896 60.4876V20.1625C7.99896 16.9541 9.26308 13.877 11.5132 11.6083C13.7634 9.33957 16.8152 8.06502 19.9974 8.06502H75.9902C79.1723 8.06502 82.2242 9.33957 84.4743 11.6083C86.7245 13.877 87.9886 16.9541 87.9886 20.1625V32.9537C90.5764 32.0312 93.3997 32.0312 95.9876 32.9537V20.1625C95.9876 14.8151 93.8807 9.68668 90.1305 5.90547C86.3802 2.12426 81.2938 0 75.9902 0H19.9974ZM95.9556 43.8656C95.8327 42.8922 95.362 41.9973 94.6316 41.3486C93.9013 40.7 92.9614 40.3422 91.9881 40.3422C91.0148 40.3422 90.0749 40.7 89.3445 41.3486C88.6142 41.9973 88.1435 42.8922 88.0206 43.8656L87.3007 49.7854C86.8635 53.3551 85.2556 56.6752 82.7323 59.2178C80.209 61.7604 76.9153 63.3798 73.3745 63.8185L67.5033 64.5443C66.5312 64.6609 65.6353 65.1329 64.9852 65.8709C64.3352 66.6089 63.9762 67.5616 63.9762 68.5486C63.9762 69.5356 64.3352 70.4883 64.9852 71.2263C65.6353 71.9643 66.5312 72.4363 67.5033 72.5529L73.3745 73.2787C76.915 73.7195 80.2079 75.3407 82.7297 77.8848C85.2515 80.429 86.8576 83.7499 87.2927 87.3199L88.0126 93.2397C88.1282 94.2198 88.5963 95.1231 89.3283 95.7785C90.0602 96.4339 91.0052 96.7959 91.9841 96.7959C92.963 96.7959 93.9079 96.4339 94.6399 95.7785C95.3718 95.1231 95.8399 94.2198 95.9556 93.2397L96.6755 87.3199C97.1126 83.7502 98.7206 80.4301 101.244 77.8875C103.767 75.3448 107.061 73.7255 110.602 73.2868L116.473 72.561C117.445 72.4444 118.341 71.9724 118.991 71.2344C119.641 70.4964 120 69.5437 120 68.5567C120 67.5697 119.641 66.6169 118.991 65.879C118.341 65.141 117.445 64.669 116.473 64.5524L110.602 63.8265C107.061 63.3858 103.768 61.7645 101.246 59.2204C98.7246 56.6763 97.1186 53.3554 96.6835 49.7854L95.9556 43.8656ZM83.7811 68.5526C87.1407 66.5122 89.9643 63.6652 91.9881 60.2779C94.0118 63.6652 96.8354 66.5122 100.195 68.5526C96.8354 70.5931 94.0118 73.44 91.9881 76.8273C89.9652 73.4336 87.1471 70.5923 83.7811 68.5526ZM78.8218 87.5377C79.5728 86.7816 79.9951 85.7556 79.9959 84.6855C79.9966 83.6154 79.5757 82.5889 78.8258 81.8317C78.0759 81.0745 77.0583 80.6487 75.997 80.6479C74.9357 80.6472 73.9175 81.0715 73.1665 81.8277L49.1696 105.999C48.7727 106.366 48.4536 106.811 48.2315 107.307C48.0095 107.802 47.889 108.338 47.8775 108.881C47.8659 109.425 47.9635 109.965 48.1643 110.469C48.3651 110.974 48.665 111.432 49.046 111.817C49.427 112.202 49.8812 112.505 50.3812 112.708C50.8813 112.911 51.417 113.01 51.9561 112.999C52.4951 112.988 53.0264 112.868 53.5181 112.644C54.0097 112.421 54.4515 112.1 54.8169 111.7L78.8218 87.5377Z" fill="#FA3737"/>
</svg>
