<?xml version="1.0" encoding="UTF-8"?>
<svg id="Layer_1" data-name="Layer 1" xmlns="http://www.w3.org/2000/svg" version="1.1" viewBox="0 0 629.56 187.16">
  <defs>
    <style>
      .cls-1 {
        fill: #fff;
      }

      .cls-1, .cls-2 {
        stroke-width: 0px;
      }

      .cls-2 {
        fill: #fa3737;
      }
    </style>
  </defs>
  <g>
    <path class="cls-2" d="M527.27,22.56c0,.65-.06,1.28-.18,1.87l-2.63,6.64-.06.14c-.2.46-.4.92-.61,1.38l-.63,1.41c-2.04,4.58-4.27,9.46-6.19,13.67l-2.06,4.53-.18.4c-.35.77-.69,1.49-1,2.15h.03l-2.6,5.73-.11.23c-1.55,3.52-5.08,5.96-9.17,5.96h-16.61l33.87,47.85-58.41-45.36,27.64-27.64h-11.48l15.96-17.1,6.04-6.47h-27.85l-24.33,34.07,13.63-.58-90.91,125.25L442.63,12.53h37.94v-.02h36.67c2.2,0,4.21.69,5.85,1.9,2.53,1.8,4.18,4.78,4.18,8.14Z"/>
    <path class="cls-1" d="M67.09,49.8l1.78-4.05,5.28-12.01h38.61l2.24-5.11h-59.5s-2.24,5.11-2.24,5.11l-5.71,12.99-5.28,12.01-5.28,12.01-5.3,12.02-7.97,18.12h53.6c3.64,0,6.77-2.14,8.19-5.23.06-.11.11-.24.17-.36l5.52-12.53h-38.64l11.04-25.01,3.5-7.96Z"/>
    <path class="cls-1" d="M127.47,28.65c-.44,0-.87.03-1.3.1-.22.03-.43.07-.64.11-1.05.24-2.02.64-2.91,1.2-.18.11-.35.24-.51.36-.15.11-.3.22-.46.36-.53.43-1,.91-1.4,1.47-.1.14-.19.26-.29.42-.1.14-.19.3-.29.46-.12.19-.24.4-.33.62-.07.11-.11.22-.17.33-.01.04-.04.11-.07.17l-5.59,12.7-.76,1.74-6.54,14.86-2.26,5.15-14.18,32.21h14.94c3.62,0,6.75-2.13,8.19-5.2.03-.06.06-.12.08-.19.04-.08.08-.17.11-.25.01-.01.01-.04.03-.06l5.34-12.13,6.32-14.37h17.97l-6.32,14.37-7.84,17.83h15.2c3.71,0,6.88-2.23,8.27-5.41.03-.07.06-.12.08-.19l11.7-26.6,2.27-5.15,6.54-14.86.77-1.76,5.8-13.18,2.24-5.09h-54.03ZM152.36,46.92l-.77,1.76-6.54,14.86h-17.97l6.54-14.86.76-1.74,5.81-13.2h17.97l-5.8,13.18Z"/>
    <path class="cls-1" d="M380.76,49.8l1.78-4.05,5.28-12.01h38.7l2.24-5.11h-59.59s-2.24,5.11-2.24,5.11l-5.71,12.99-5.28,12.01-2.12,4.8-2.26,5.15-.91,2.06-5.3,12.02-7.97,18.12h53.68c3.64,0,6.77-2.14,8.19-5.23.06-.11.11-.24.17-.36l5.52-12.53h-38.72l6.21-14.08h38.71l2.26-5.15h-38.7l2.56-5.78,3.5-7.96Z"/>
    <path class="cls-1" d="M193.97,28.65c-.44,0-.87.03-1.3.1-.22.03-.43.07-.64.11-1.05.24-2.02.64-2.91,1.2-.18.11-.35.24-.51.36-.15.11-.3.22-.46.36-.53.43-1,.91-1.4,1.47-.1.14-.19.26-.29.42-.1.14-.19.3-.29.46-.12.19-.24.4-.33.62-.07.11-.11.22-.17.33-.01.04-.04.11-.07.17l-5.59,12.7-.76,1.74-22.98,52.21h14.94c3.62,0,6.75-2.13,8.19-5.2.03-.06.06-.12.08-.19.04-.08.08-.17.11-.25.01-.01.01-.04.03-.06l5.34-12.13,6.32-14.37,1.73-3.92.54-1.23,6.06-13.75.48-1.11.76-1.74,5.81-13.2h28.28l-5.8,13.18-.77,1.76-6.54,14.86h-27.28l.54,1.23,1.73,3.92,6.32,14.37,5.05,11.48.29.65s.01.04.04.06c.03.08.06.17.11.25.01.07.04.14.08.19,1.43,3.07,4.57,5.2,8.18,5.2h14.94l-2.67-6.07-.03-.06-4.91-11.18-5.6-12.74-.95-2.16h22.99l2.27-5.15,6.54-14.84.77-1.76,5.8-13.18h0s2.24-5.11,2.24-5.11h-64.33Z"/>
    <path class="cls-1" d="M270.81,28.65c-.44,0-.87.03-1.3.1-.22.03-.43.07-.64.11-1.05.24-2.02.64-2.91,1.2-.18.11-.35.24-.51.36-.15.11-.3.22-.46.36-.53.43-1,.91-1.4,1.47-.1.14-.19.26-.29.42-.1.14-.19.3-.29.46-.12.19-.24.4-.33.62-.07.11-.11.22-.17.33-.01.04-.04.11-.07.17l-5.59,12.7-.76,1.74-22.98,52.21h14.94c3.62,0,6.75-2.13,8.19-5.2.03-.06.06-.12.08-.19.04-.08.08-.17.11-.25.01-.01.01-.04.03-.06l5.34-12.13,6.32-14.37,1.73-3.92.54-1.23,6.06-13.75.48-1.11.76-1.74,5.81-13.2h28.28l-5.8,13.18-.77,1.76-6.54,14.86h-27.28l.54,1.23,1.73,3.92,6.32,14.37,5.05,11.48.29.65s.01.04.04.06c.03.08.06.17.11.25.01.07.04.14.08.19,1.43,3.07,4.57,5.2,8.18,5.2h14.94l-2.67-6.07-.03-.06-4.91-11.18-5.6-12.74-.95-2.16h22.99l2.27-5.15,6.54-14.84.77-1.76,5.8-13.18h0s2.24-5.11,2.24-5.11h-64.33Z"/>
    <path class="cls-1" d="M347.77,28.36c-.44,0-.87.03-1.3.1-.22.03-.43.07-.64.11-1.05.24-2.02.64-2.91,1.2-.18.11-.35.24-.51.36-.15.11-.3.22-.46.36-.53.43-1,.91-1.4,1.47-.1.14-.19.26-.29.42-.1.14-.19.3-.29.46-.12.19-.24.4-.33.62h0c-.07.11-.11.22-.17.33-.01.04-.04.11-.07.17l-5.59,12.7-.76,1.74-22.98,52.21h14.94c3.62,0,6.75-2.13,8.19-5.2.03-.06.06-.12.08-.19.04-.08.08-.17.11-.25.01-.01.01-.04.03-.06l5.34-12.13,6.32-14.37,1.73-3.92.54-1.23,6.06-13.75.48-1.11.76-1.74,5.81-13.2,2.24-5.09h-14.96Z"/>
    <path class="cls-1" d="M558.96,46.94l5.81-13.2h38.83l2.24-5.09h-53.79c-.44,0-.87.03-1.3.1-.22.03-.43.07-.64.11-1.05.24-2.02.64-2.91,1.2-.18.11-.35.24-.51.36-.15.11-.3.22-.46.36-.53.43-1,.91-1.4,1.47-.1.14-.19.26-.29.42-.1.14-.19.3-.29.46-.12.19-.24.4-.33.62-.07.11-.11.22-.17.33-.01.04-.04.11-.07.17l-5.59,12.7-.76,1.74-6.54,14.86-2.26,5.15h38.57l-6.2,14.08h-38.53l-7.97,18.12h53.73s.08-.01.12-.01c.19,0,.39-.01.57-.01.06-.01.11-.01.17-.03.06,0,.1,0,.15-.01.08,0,.18,0,.26-.01.03-.01.04-.01.07-.01.01,0,.04-.01.06-.01.15-.03.3-.06.44-.08h.01c.06-.01.11-.01.17-.03.21-.06.4-.1.59-.17.03-.01.07-.03.1-.03.03-.01.06-.03.08-.04.33-.1.64-.22.94-.36.1-.06.21-.1.3-.15.04-.03.08-.04.12-.06.1-.04.19-.1.29-.15.19-.1.37-.21.55-.33.18-.11.36-.25.53-.37.12-.1.22-.21.35-.3.08-.08.18-.17.26-.25.11-.1.24-.19.35-.3.15-.15.29-.32.43-.48.14-.17.26-.33.4-.5.1-.14.17-.28.25-.42.07-.1.12-.19.18-.3.08-.12.18-.25.25-.39.08-.12.14-.26.21-.4.06-.11.11-.24.17-.36l5.52-12.53h-.03l6.2-14.08,2.27-5.15h-38.83l6.54-14.86.76-1.74Z"/>
  </g>
  <circle class="cls-1" cx="356.81" cy="10.87" r="10.87"/>
</svg>