<svg width="43" height="42" viewBox="0 0 43 42" fill="none" xmlns="http://www.w3.org/2000/svg">
<g clip-path="url(#clip0_2_4662)">
<path d="M7.7407 22.6868C9.64783 22.6868 11.2082 21.1265 11.2082 19.2193C11.2082 17.3122 9.64783 15.7518 7.7407 15.7518C5.83356 15.7518 4.27318 17.3122 4.27318 19.2193C4.27318 21.1265 5.83356 22.6868 7.7407 22.6868ZM9.69984 24.594C9.05835 24.49 8.41686 24.4206 7.7407 24.4206C6.02428 24.4206 4.39454 24.7847 2.92085 25.4262C1.63787 25.981 0.805664 27.2293 0.805664 28.6336V31.3556H8.60758V28.5643C8.60758 27.1253 9.00634 25.7729 9.69984 24.594ZM35.4808 22.6868C37.388 22.6868 38.9483 21.1265 38.9483 19.2193C38.9483 17.3122 37.388 15.7518 35.4808 15.7518C33.5737 15.7518 32.0133 17.3122 32.0133 19.2193C32.0133 21.1265 33.5737 22.6868 35.4808 22.6868ZM42.4159 28.6336C42.4159 27.2293 41.5837 25.981 40.3007 25.4262C38.827 24.7847 37.1973 24.4206 35.4808 24.4206C34.8047 24.4206 34.1632 24.49 33.5217 24.594C34.2152 25.7729 34.614 27.1253 34.614 28.5643V31.3556H42.4159V28.6336ZM28.9619 23.8138C26.9334 22.9122 24.4368 22.2534 21.6108 22.2534C18.7847 22.2534 16.2881 22.9296 14.2596 23.8138C12.3872 24.646 11.2082 26.5185 11.2082 28.5643V31.3556H32.0133V28.5643C32.0133 26.5185 30.8344 24.646 28.9619 23.8138ZM14.7971 27.8881C14.9531 27.4894 15.0225 27.212 16.3748 26.6918C18.0566 26.033 19.825 25.7209 21.6108 25.7209C23.3965 25.7209 25.165 26.033 26.8467 26.6918C28.1817 27.212 28.2511 27.4894 28.4244 27.8881H14.7971ZM21.6108 14.0181C22.5643 14.0181 23.3445 14.7982 23.3445 15.7518C23.3445 16.7054 22.5643 17.4856 21.6108 17.4856C20.6572 17.4856 19.877 16.7054 19.877 15.7518C19.877 14.7982 20.6572 14.0181 21.6108 14.0181ZM21.6108 10.5505C18.7327 10.5505 16.4095 12.8738 16.4095 15.7518C16.4095 18.6299 18.7327 20.9531 21.6108 20.9531C24.4888 20.9531 26.812 18.6299 26.812 15.7518C26.812 12.8738 24.4888 10.5505 21.6108 10.5505Z" fill="white"/>
</g>
<defs>
<clipPath id="clip0_2_4662">
<rect width="41.6102" height="41.6102" fill="white" transform="translate(0.805664 0.147583)"/>
</clipPath>
</defs>
</svg>
