<svg width="31" height="29" viewBox="0 0 31 29" fill="none" xmlns="http://www.w3.org/2000/svg">
<path fill-rule="evenodd" clip-rule="evenodd" d="M17.7689 25.1813C17.7773 25.177 20.7213 24.8067 24.3167 24.3639C27.9122 23.9169 30.8858 23.5508 30.9281 23.5465C30.9958 23.5423 31 23.6998 31 26.2711V29L30.8858 28.9745C30.8181 28.9617 27.9587 28.4806 24.5282 27.9059C21.0978 27.3312 18.2341 26.8501 18.1665 26.8288L18.0396 26.799L17.9 25.9944C17.8238 25.5517 17.7646 25.1856 17.7689 25.1813ZM0.00325693 8.0759C0.0328663 8.05461 3.93284 6.23253 8.6661 4.02305C13.3994 1.81357 17.3036 0.0042572 17.3374 0C17.3712 0 20.4591 0.766294 24.1983 1.71139L31 3.42704V12.414V21.4052L30.8223 21.4307C30.1286 21.5286 25.3658 22.1034 25.3531 22.0906C25.3446 22.0821 24.837 19.2042 24.2195 15.6963C23.6061 12.1926 23.0943 9.31048 23.0816 9.29771C23.0689 9.2892 22.8236 9.38286 22.536 9.51057C22.0707 9.71917 22.0115 9.75323 22.0199 9.84263C22.1468 11.1538 23.0985 22.3545 23.0858 22.3673C23.0605 22.3928 17.422 23.0868 17.4051 23.0697C17.3966 23.0612 16.9313 20.4303 16.3688 17.2246C15.8104 14.0189 15.3409 11.388 15.3282 11.3752C15.3197 11.3667 15.0829 11.4561 14.7995 11.5838C14.4237 11.7508 14.3261 11.7942 14.3008 11.8642C14.2919 11.8888 14.2919 11.9166 14.2919 11.9542C14.2919 12.0351 14.5118 14.6277 14.7825 17.7184C15.049 20.8092 15.2648 23.3422 15.2563 23.3507C15.2394 23.3592 9.87162 24.0191 9.72781 24.0276L9.62629 24.0319L8.70417 18.7742C8.19658 15.8836 7.77782 13.491 7.77782 13.4612C7.77782 13.4357 7.75244 13.4102 7.72283 13.4102C7.6763 13.4102 6.72458 13.8189 6.68651 13.8572C6.67805 13.8657 6.87685 16.2071 7.12642 19.068C7.37598 21.9288 7.57056 24.2788 7.55787 24.2873C7.52826 24.3171 4.3093 24.7088 4.28815 24.6832C4.27546 24.6747 3.29412 20.9369 2.10552 16.3859C0.396638 9.83838 -0.043272 8.10144 0.00325693 8.0759Z" fill="#FF4343"/>
</svg>
