<svg width="99" height="102" viewBox="0 0 99 102" fill="none" xmlns="http://www.w3.org/2000/svg">
<path d="M0 12.0014C0 8.81844 1.49068 5.76583 4.1441 3.51513C6.79753 1.26443 10.3963 0 14.1489 0H70.7443C74.4968 0 78.0956 1.26443 80.749 3.51513C83.4024 5.76583 84.8931 8.81844 84.8931 12.0014V71.3064L77.8187 77.3671V12.0014C77.8187 10.4099 77.0734 8.88362 75.7466 7.75827C74.4199 6.63292 72.6205 6.00071 70.7443 6.00071H14.1489C12.2726 6.00071 10.4732 6.63292 9.14648 7.75827C7.81977 8.88362 7.07443 10.4099 7.07443 12.0014V84.0099C7.07443 85.6014 7.81977 87.1277 9.14648 88.253C10.4732 89.3784 12.2726 90.0106 14.1489 90.0106H43.0479C43.5502 91.2107 44.3567 92.3449 45.4815 93.311L48.6013 96.0113H14.1489C10.3963 96.0113 6.79753 94.7469 4.1441 92.4962C1.49068 90.2455 0 87.1929 0 84.0099V12.0014ZM28.2977 21.0025C28.2977 22.594 27.5524 24.1203 26.2257 25.2456C24.8989 26.371 23.0995 27.0032 21.2233 27.0032C19.347 27.0032 17.5476 26.371 16.2209 25.2456C14.8942 24.1203 14.1489 22.594 14.1489 21.0025C14.1489 19.411 14.8942 17.8847 16.2209 16.7593C17.5476 15.634 19.347 15.0018 21.2233 15.0018C23.0995 15.0018 24.8989 15.634 26.2257 16.7593C27.5524 17.8847 28.2977 19.411 28.2977 21.0025ZM38.9093 18.0021C37.9712 18.0021 37.0715 18.3182 36.4082 18.8809C35.7448 19.4436 35.3721 20.2067 35.3721 21.0025C35.3721 21.7982 35.7448 22.5614 36.4082 23.124C37.0715 23.6867 37.9712 24.0028 38.9093 24.0028H67.2071C68.1452 24.0028 69.0449 23.6867 69.7082 23.124C70.3716 22.5614 70.7443 21.7982 70.7443 21.0025C70.7443 20.2067 70.3716 19.4436 69.7082 18.8809C69.0449 18.3182 68.1452 18.0021 67.2071 18.0021H38.9093ZM38.9093 42.0049C37.9712 42.0049 37.0715 42.321 36.4082 42.8837C35.7448 43.4464 35.3721 44.2096 35.3721 45.0053C35.3721 45.801 35.7448 46.5642 36.4082 47.1269C37.0715 47.6895 37.9712 48.0056 38.9093 48.0056H67.2071C68.1452 48.0056 69.0449 47.6895 69.7082 47.1269C70.3716 46.5642 70.7443 45.801 70.7443 45.0053C70.7443 44.2096 70.3716 43.4464 69.7082 42.8837C69.0449 42.321 68.1452 42.0049 67.2071 42.0049H38.9093ZM35.3721 69.0081C35.3721 68.2124 35.7448 67.4492 36.4082 66.8866C37.0715 66.3239 37.9712 66.0078 38.9093 66.0078H67.2071C68.1452 66.0078 69.0449 66.3239 69.7082 66.8866C70.3716 67.4492 70.7443 68.2124 70.7443 69.0081C70.7443 69.8039 70.3716 70.567 69.7082 71.1297C69.0449 71.6924 68.1452 72.0085 67.2071 72.0085H38.9093C37.9712 72.0085 37.0715 71.6924 36.4082 71.1297C35.7448 70.567 35.3721 69.8039 35.3721 69.0081ZM21.2233 51.006C23.0995 51.006 24.8989 50.3738 26.2257 49.2484C27.5524 48.1231 28.2977 46.5968 28.2977 45.0053C28.2977 43.4138 27.5524 41.8875 26.2257 40.7622C24.8989 39.6368 23.0995 39.0046 21.2233 39.0046C19.347 39.0046 17.5476 39.6368 16.2209 40.7622C14.8942 41.8875 14.1489 43.4138 14.1489 45.0053C14.1489 46.5968 14.8942 48.1231 16.2209 49.2484C17.5476 50.3738 19.347 51.006 21.2233 51.006ZM21.2233 75.0088C23.0995 75.0088 24.8989 74.3766 26.2257 73.2513C27.5524 72.1259 28.2977 70.5996 28.2977 69.0081C28.2977 67.4166 27.5524 65.8903 26.2257 64.765C24.8989 63.6396 23.0995 63.0074 21.2233 63.0074C19.347 63.0074 17.5476 63.6396 16.2209 64.765C14.8942 65.8903 14.1489 67.4166 14.1489 69.0081C14.1489 70.5996 14.8942 72.1259 16.2209 73.2513C17.5476 74.3766 19.347 75.0088 21.2233 75.0088ZM98.0162 77.1211C98.6583 76.553 99.0115 75.7936 98.9997 75.0067C98.988 74.2198 98.6122 73.4683 97.9533 72.9142C97.2945 72.3601 96.4054 72.0477 95.4776 72.0444C94.5498 72.0411 93.6576 72.3472 92.9933 72.8966L67.2212 94.9792L55.5838 84.91C55.2604 84.6221 54.8728 84.3916 54.4435 84.2319C54.0142 84.0722 53.5518 83.9865 53.0831 83.9797C52.6144 83.9729 52.1488 84.0452 51.7133 84.1925C51.2779 84.3397 50.8813 84.5588 50.5465 84.8372C50.2118 85.1155 49.9456 85.4475 49.7635 85.8139C49.5814 86.1803 49.4869 86.5737 49.4856 86.9714C49.4843 87.369 49.5762 87.7628 49.756 88.1301C49.9357 88.4973 50.1997 88.8306 50.5326 89.1105L64.1792 100.92C64.5732 101.261 65.0433 101.532 65.562 101.717C66.0807 101.903 66.6377 101.999 67.2006 102C67.7635 102.001 68.321 101.907 68.8407 101.724C69.3604 101.541 69.8319 101.271 70.2278 100.932L98.0162 77.1211Z" fill="#FA3737"/>
</svg>
